<?xml version="1.0" encoding="UTF-8"?>
<!DOCTYPE svg PUBLIC "-//W3C//DTD SVG 1.1//EN" "http://www.w3.org/Graphics/SVG/1.1/DTD/svg11.dtd">
<svg xmlns="http://www.w3.org/2000/svg" version="1.1" width="627px" height="300px" style="shape-rendering:geometricPrecision; text-rendering:geometricPrecision; image-rendering:optimizeQuality; fill-rule:evenodd; clip-rule:evenodd" xmlns:xlink="http://www.w3.org/1999/xlink">
<g><path style="opacity:1" fill="#f3952f" d="M 114.5,66.5 C 114.33,67.8221 114.663,68.9887 115.5,70C 115,70.5 114.5,71 114,71.5C 112.602,70.9491 111.268,70.6158 110,70.5C 105.677,73.0777 101.843,76.2444 98.5,80C 99.636,81.5298 100.636,82.8631 101.5,84C 100.874,84.7504 100.374,85.5838 100,86.5C 99.6667,86.1667 99.3333,85.8333 99,85.5C 93.2019,87.9341 87.3686,90.4341 81.5,93C 79.5,94.3333 77.5,95.6667 75.5,97C 76.2524,97.6708 76.5858,98.5041 76.5,99.5C 75.8333,100.833 74.8333,101.833 73.5,102.5C 72.7784,102.082 72.2784,101.416 72,100.5C 71.5814,101.672 70.9147,102.672 70,103.5C 68.6796,103.201 67.1796,103.034 65.5,103C 64.0186,102.02 62.6853,100.853 61.5,99.5C 60.914,99.7093 60.414,100.043 60,100.5C 58.581,98.6641 57.4143,96.6641 56.5,94.5C 54.8333,96.1667 53.8333,95.8333 53.5,93.5C 54.6399,91.5266 55.9733,89.6933 57.5,88C 56.8333,87.6667 56.1667,87.3333 55.5,87C 58.6079,84.7608 60.6079,81.9275 61.5,78.5C 77.4269,66.5825 95.0936,62.5825 114.5,66.5 Z"/></g>
<g><path style="opacity:1" fill="#f38d2a" d="M 114.5,66.5 C 118.479,66.7424 122.146,67.7424 125.5,69.5C 124.624,69.3691 123.957,69.7025 123.5,70.5C 128.465,72.4116 133.132,74.9116 137.5,78C 139.451,79.7342 140.451,81.9009 140.5,84.5C 138.488,83.9862 136.488,83.8195 134.5,84C 130.921,88.0287 126.754,91.1953 122,93.5C 119.997,91.5424 117.831,91.2091 115.5,92.5C 101.263,88.3132 88.2633,90.6465 76.5,99.5C 76.5858,98.5041 76.2524,97.6708 75.5,97C 77.5,95.6667 79.5,94.3333 81.5,93C 87.3686,90.4341 93.2019,87.9341 99,85.5C 99.3333,85.8333 99.6667,86.1667 100,86.5C 100.374,85.5838 100.874,84.7504 101.5,84C 100.636,82.8631 99.636,81.5298 98.5,80C 101.843,76.2444 105.677,73.0777 110,70.5C 111.268,70.6158 112.602,70.9491 114,71.5C 114.5,71 115,70.5 115.5,70C 114.663,68.9887 114.33,67.8221 114.5,66.5 Z"/></g>
<g><path style="opacity:1" fill="#f37f29" d="M 125.5,69.5 C 131.489,71.4905 136.823,74.4905 141.5,78.5C 140.475,78.8966 140.308,79.5632 141,80.5C 146.006,85.1726 150.672,90.1726 155,95.5C 156.638,99.6892 157.472,103.856 157.5,108C 156.109,109.02 154.609,109.853 153,110.5C 153.077,109.262 152.911,108.262 152.5,107.5C 150.144,109.69 147.644,111.69 145,113.5C 142.989,109.998 141.656,109.998 141,113.5C 139.667,111.5 138.333,109.5 137,107.5C 136.722,108.416 136.222,109.082 135.5,109.5C 130.622,101.614 123.955,95.947 115.5,92.5C 117.831,91.2091 119.997,91.5424 122,93.5C 126.754,91.1953 130.921,88.0287 134.5,84C 136.488,83.8195 138.488,83.9862 140.5,84.5C 140.451,81.9009 139.451,79.7342 137.5,78C 133.132,74.9116 128.465,72.4116 123.5,70.5C 123.957,69.7025 124.624,69.3691 125.5,69.5 Z"/></g>
<g><path style="opacity:1" fill="#f38e2a" d="M 61.5,78.5 C 60.6079,81.9275 58.6079,84.7608 55.5,87C 56.1667,87.3333 56.8333,87.6667 57.5,88C 55.9733,89.6933 54.6399,91.5266 53.5,93.5C 53.8333,95.8333 54.8333,96.1667 56.5,94.5C 57.4143,96.6641 58.581,98.6641 60,100.5C 60.414,100.043 60.914,99.7093 61.5,99.5C 62.6853,100.853 64.0186,102.02 65.5,103C 67.1796,103.034 68.6796,103.201 70,103.5C 70.9147,102.672 71.5814,101.672 72,100.5C 72.2784,101.416 72.7784,102.082 73.5,102.5C 72.5,104.167 71.1667,105.5 69.5,106.5C 68.8826,106.389 68.3826,106.056 68,105.5C 65.0825,109.666 62.4159,113.999 60,118.5C 58.6667,117.833 57.3333,117.167 56,116.5C 55.6667,117.167 55.3333,117.833 55,118.5C 54.4169,116.998 53.5836,115.665 52.5,114.5C 51.914,114.709 51.414,115.043 51,115.5C 49.3859,112.763 47.2192,110.597 44.5,109C 45.6956,108.346 45.6956,107.846 44.5,107.5C 43.1936,108.912 42.3603,110.579 42,112.5C 42.9125,105.778 45.4125,99.6115 49.5,94C 48.944,93.6174 48.6107,93.1174 48.5,92.5C 52.1047,87.226 56.438,82.5593 61.5,78.5 Z"/></g>
<g><path style="opacity:1" fill="#BDC2FF" d="M 294.5,89.5 C 311.216,88.4236 316.216,95.5902 309.5,111C 303.277,112.581 296.944,112.915 290.5,112C 289.667,111.167 288.833,110.333 288,109.5C 286.455,104.953 286.121,100.287 287,95.5C 288.354,91.9238 290.854,89.9238 294.5,89.5 Z"/></g>
<g><path style="opacity:1" fill="#BDC2FF" d="M 485.5,101.5 C 482.428,101.183 479.428,101.516 476.5,102.5C 477.192,104.335 476.858,106.168 475.5,108C 476,108.5 476.5,109 477,109.5C 478.102,104.27 478.935,104.27 479.5,109.5C 478.893,113.005 476.893,115.505 473.5,117C 474.659,120.156 476.159,120.323 478,117.5C 479.645,119.735 478.812,120.735 475.5,120.5C 456.878,115.144 444.211,121.478 437.5,139.5C 436.883,139.611 436.383,139.944 436,140.5C 436.155,138.189 436.155,135.856 436,133.5C 435.085,134.328 434.419,135.328 434,136.5C 433.749,134.567 433.249,132.734 432.5,131C 435.215,130.125 436.548,128.292 436.5,125.5C 435.288,123.148 435.955,121.315 438.5,120C 438.333,119.5 438.167,119 438,118.5C 435.876,119.622 434.043,121.122 432.5,123C 431.668,123.688 431.002,123.521 430.5,122.5C 431.815,120.684 433.315,119.017 435,117.5C 435.667,116.833 435.667,116.167 435,115.5C 433.027,117.228 431.194,119.061 429.5,121C 428.668,121.688 428.002,121.521 427.5,120.5C 429.146,117.19 431.48,114.523 434.5,112.5C 434,112.167 433.5,111.833 433,111.5C 431.662,112.506 430.329,113.506 429,114.5C 429.439,112.241 429.939,109.908 430.5,107.5C 442.288,98.7178 455.621,95.2178 470.5,97C 475.939,97.4376 480.939,98.9376 485.5,101.5 Z"/></g>
<g><path style="opacity:1" fill="#BDC2FF" d="M 256.5,123.5 C 255.07,123.421 253.736,123.754 252.5,124.5C 251.468,122.96 250.135,122.46 248.5,123C 246.505,124.328 244.839,125.995 243.5,128C 243.645,128.772 243.978,129.439 244.5,130C 243.207,130.49 241.873,130.657 240.5,130.5C 240.5,131.833 240.5,133.167 240.5,134.5C 239.5,134.5 238.5,134.5 237.5,134.5C 237.34,132.801 237.506,131.134 238,129.5C 242.833,125.333 247.333,120.833 251.5,116C 248.833,117.333 246.167,118.667 243.5,120C 248.315,114.35 253.315,108.85 258.5,103.5C 257.998,102.479 257.332,102.312 256.5,103C 251.333,108.167 246.167,113.333 241,118.5C 240.667,117.167 240.333,115.833 240,114.5C 236.833,115.667 234.667,117.833 233.5,121C 232.234,121.309 231.067,121.809 230,122.5C 229.601,122.272 229.435,121.938 229.5,121.5C 235.959,113.871 242.625,106.371 249.5,99C 258.851,98.1679 268.184,98.3346 277.5,99.5C 271.194,108.137 264.194,116.137 256.5,123.5 Z"/></g>
<g><path style="opacity:1" fill="#BDC2FF" d="M 485.5,101.5 C 491.155,103.082 495.988,106.082 500,110.5C 500.667,111.5 500.667,112.5 500,113.5C 495.903,118.687 491.57,123.687 487,128.5C 483.536,125.195 479.703,122.528 475.5,120.5C 478.812,120.735 479.645,119.735 478,117.5C 476.159,120.323 474.659,120.156 473.5,117C 476.893,115.505 478.893,113.005 479.5,109.5C 478.935,104.27 478.102,104.27 477,109.5C 476.5,109 476,108.5 475.5,108C 476.858,106.168 477.192,104.335 476.5,102.5C 479.428,101.516 482.428,101.183 485.5,101.5 Z"/></g>
<g><path style="opacity:1" fill="#f38728" d="M 48.5,92.5 C 48.6107,93.1174 48.944,93.6174 49.5,94C 45.4125,99.6115 42.9125,105.778 42,112.5C 42.3603,110.579 43.1936,108.912 44.5,107.5C 45.6956,107.846 45.6956,108.346 44.5,109C 47.2192,110.597 49.3859,112.763 51,115.5C 51.414,115.043 51.914,114.709 52.5,114.5C 53.5836,115.665 54.4169,116.998 55,118.5C 55.3333,117.833 55.6667,117.167 56,116.5C 57.3333,117.167 58.6667,117.833 60,118.5C 62.4159,113.999 65.0825,109.666 68,105.5C 68.3826,106.056 68.8826,106.389 69.5,106.5C 65.587,112.571 63.2536,119.237 62.5,126.5C 61.5,126.5 60.5,126.5 59.5,126.5C 60.2114,130.281 59.0447,133.281 56,135.5C 53.1908,134.07 50.8574,132.07 49,129.5C 48.6667,129.833 48.3333,130.167 48,130.5C 47.0445,126.647 44.8778,125.314 41.5,126.5C 41.7989,124.396 41.4656,122.396 40.5,120.5C 39.6697,126.472 39.1697,132.472 39,138.5C 38.6174,139.056 38.1174,139.389 37.5,139.5C 35.5153,127.67 36.682,116.003 41,104.5C 42.7744,99.9305 45.2744,95.9305 48.5,92.5 Z"/></g>
<g><path style="opacity:1" fill="#BDC2FF" d="M 190.5,192.5 C 190.5,165.167 190.5,137.833 190.5,110.5C 191.29,111.609 191.79,112.942 192,114.5C 192.333,111.833 192.667,109.167 193,106.5C 193.219,107.938 193.719,109.271 194.5,110.5C 195.105,107.696 195.938,105.029 197,102.5C 197.333,103.833 197.667,105.167 198,106.5C 200.333,105.5 202,103.833 203,101.5C 204.824,102.749 204.657,103.915 202.5,105C 204.211,106.133 204.711,107.633 204,109.5C 200.218,112.681 198.218,116.681 198,121.5C 199,120.833 200,120.167 201,119.5C 201.14,116.957 201.806,114.623 203,112.5C 203.849,117.586 204.016,122.586 203.5,127.5C 202.448,127.649 201.448,127.483 200.5,127C 201.858,125.168 202.192,123.335 201.5,121.5C 199.833,123.5 198.167,125.5 196.5,127.5C 196.263,123.309 195.763,118.975 195,114.5C 194.184,116.625 193.017,118.459 191.5,120C 192.738,124.19 193.404,128.523 193.5,133C 193.333,136.833 193.167,140.667 193,144.5C 192.346,143.304 191.846,143.304 191.5,144.5C 193.279,148.401 194.279,152.568 194.5,157C 193.361,167.443 193.361,177.776 194.5,188C 193.809,189.067 193.309,190.234 193,191.5C 192.329,192.252 191.496,192.586 190.5,192.5 Z"/></g>
<g><path style="opacity:1" fill="#BDC2FF" d="M 430.5,107.5 C 429.939,109.908 429.439,112.241 429,114.5C 430.329,113.506 431.662,112.506 433,111.5C 433.5,111.833 434,112.167 434.5,112.5C 431.48,114.523 429.146,117.19 427.5,120.5C 428.002,121.521 428.668,121.688 429.5,121C 431.194,119.061 433.027,117.228 435,115.5C 435.667,116.167 435.667,116.833 435,117.5C 433.315,119.017 431.815,120.684 430.5,122.5C 431.002,123.521 431.668,123.688 432.5,123C 434.043,121.122 435.876,119.622 438,118.5C 438.167,119 438.333,119.5 438.5,120C 435.955,121.315 435.288,123.148 436.5,125.5C 430.75,128.731 428.417,133.731 429.5,140.5C 424.35,143.144 420.85,147.144 419,152.5C 422.194,149.306 425.36,146.14 428.5,143C 429.332,142.312 429.998,142.479 430.5,143.5C 427.472,146.407 424.805,149.574 422.5,153C 422.667,153.5 422.833,154 423,154.5C 425.303,152.607 427.47,150.607 429.5,148.5C 430.583,149.365 430.749,150.365 430,151.5C 427.5,153.833 425,156.167 422.5,158.5C 421.719,157.271 421.219,155.938 421,154.5C 420.667,154.833 420.333,155.167 420,155.5C 420.136,159.524 420.803,163.524 422,167.5C 423.049,166.483 424.216,166.316 425.5,167C 424.826,168.751 424.493,170.417 424.5,172C 427.272,172.271 428.938,173.771 429.5,176.5C 430.281,175.271 430.781,173.938 431,172.5C 431.98,174.059 432.813,175.726 433.5,177.5C 436.572,173.263 437.572,173.596 436.5,178.5C 436.556,179.737 437.056,180.737 438,181.5C 439.011,180.663 440.178,180.33 441.5,180.5C 441.55,183.198 440.55,185.364 438.5,187C 438.833,187.333 439.167,187.667 439.5,188C 438.552,188.483 437.552,188.649 436.5,188.5C 420.243,179.012 411.91,164.678 411.5,145.5C 412.015,129.804 418.348,117.137 430.5,107.5 Z"/></g>
<g><path style="opacity:1" fill="#f66916" d="M 92.5,116.5 C 93.4916,116.328 94.1583,116.662 94.5,117.5C 88.8828,123.453 83.2161,129.453 77.5,135.5C 78.376,136.251 79.376,136.751 80.5,137C 79.8333,137.333 79.1667,137.667 78.5,138C 79.7375,138.232 80.7375,138.732 81.5,139.5C 79.4086,139.682 77.4086,139.348 75.5,138.5C 74.4173,137.635 74.2506,136.635 75,135.5C 80.6994,128.97 86.5327,122.637 92.5,116.5 Z"/></g>
<g><path style="opacity:1" fill="#32316e" d="M 101.5,108.5 C 102.239,108.369 102.906,108.536 103.5,109C 111.551,117.596 119.718,126.096 128,134.5C 128.847,137.49 127.68,138.824 124.5,138.5C 121.023,137.677 117.356,137.177 113.5,137C 115.167,135.833 116.833,134.667 118.5,133.5C 116.06,129.747 113.393,129.747 110.5,133.5C 109.914,133.291 109.414,132.957 109,132.5C 107.26,133.716 106.26,135.382 106,137.5C 105.501,141.152 105.335,144.818 105.5,148.5C 104.778,148.918 104.278,149.584 104,150.5C 103.667,149.833 103.333,149.167 103,148.5C 102.501,152.486 102.334,156.486 102.5,160.5C 102.167,160.5 101.833,160.5 101.5,160.5C 101.5,143.167 101.5,125.833 101.5,108.5 Z"/></g>
<g><path style="opacity:1" fill="#f6712a" d="M 141.5,78.5 C 154.241,87.622 162.241,99.9553 165.5,115.5C 163.657,119.637 161.824,123.97 160,128.5C 158.255,129.956 156.422,131.289 154.5,132.5C 154.331,131.603 153.998,130.603 153.5,129.5C 149.688,131.817 147.188,135.15 146,139.5C 145.667,138.167 145.333,136.833 145,135.5C 142.908,144.396 141.908,144.063 142,134.5C 141.617,135.056 141.117,135.389 140.5,135.5C 141.766,126.327 140.1,117.66 135.5,109.5C 136.222,109.082 136.722,108.416 137,107.5C 138.333,109.5 139.667,111.5 141,113.5C 141.656,109.998 142.989,109.998 145,113.5C 147.644,111.69 150.144,109.69 152.5,107.5C 152.911,108.262 153.077,109.262 153,110.5C 154.609,109.853 156.109,109.02 157.5,108C 157.472,103.856 156.638,99.6892 155,95.5C 150.672,90.1726 146.006,85.1726 141,80.5C 140.308,79.5632 140.475,78.8966 141.5,78.5 Z"/></g>
<g><path style="opacity:1" fill="#BDC2FF" d="M 391.5,127.5 C 393.914,128.911 395.581,130.911 396.5,133.5C 392.877,132.521 390.043,133.854 388,137.5C 387.667,135.833 387.333,134.167 387,132.5C 386.311,133.357 385.478,134.023 384.5,134.5C 383.319,132.865 383.319,131.198 384.5,129.5C 384.03,128.537 383.363,128.537 382.5,129.5C 381.791,128.596 380.791,128.263 379.5,128.5C 379.719,129.675 379.386,130.675 378.5,131.5C 375.768,133.238 373.268,135.238 371,137.5C 370.53,138.577 370.697,139.577 371.5,140.5C 368.545,139.841 365.545,139.508 362.5,139.5C 361.411,137.883 359.744,137.05 357.5,137C 358.706,134.291 357.706,132.625 354.5,132C 356.946,127.093 360.946,124.093 366.5,123C 365.007,121.844 365.174,121.01 367,120.5C 370.662,120.678 374.495,121.178 378.5,122C 382.659,124.276 386.993,126.109 391.5,127.5 Z"/></g>
<g><path style="opacity:1" fill="#BDC2FF" d="M 571.5,122.5 C 572.087,123.767 572.087,124.767 571.5,125.5C 567.23,122.363 562.897,122.03 558.5,124.5C 559.025,125.192 559.692,125.692 560.5,126C 560.167,126.333 559.833,126.667 559.5,127C 560.76,128.113 561.927,128.28 563,127.5C 563.317,129.301 563.984,129.634 565,128.5C 565.309,130.391 564.475,131.725 562.5,132.5C 564.061,133.347 565.561,133.014 567,131.5C 567.54,133.135 567.04,134.468 565.5,135.5C 565.833,135.833 566.167,136.167 566.5,136.5C 570.514,134.01 571.181,134.843 568.5,139C 569.833,139.667 571.167,140.333 572.5,141C 572.439,144.676 572.273,148.51 572,152.5C 571.457,150.369 570.624,148.369 569.5,146.5C 568.583,147.127 567.583,147.461 566.5,147.5C 559.719,138.501 551.552,137.168 542,143.5C 540.235,146.032 538.735,148.699 537.5,151.5C 536.35,152.85 535.683,152.684 535.5,151C 536.847,147.141 538.847,143.641 541.5,140.5C 540.793,137.561 539.46,137.061 537.5,139C 538.535,140.507 538.368,142.007 537,143.5C 536.751,142.376 536.251,141.376 535.5,140.5C 533.167,142.833 530.833,145.167 528.5,147.5C 527.246,145.741 527.579,144.241 529.5,143C 527.46,143.946 525.293,145.113 523,146.5C 522.316,145.216 522.483,144.049 523.5,143C 522.552,142.517 521.552,142.351 520.5,142.5C 518.752,147.951 518.085,153.451 518.5,159C 519.311,162.888 520.311,166.721 521.5,170.5C 519.66,171.01 517.66,171.01 515.5,170.5C 509.12,147.77 516.453,131.27 537.5,121C 549.043,117.407 560.376,117.907 571.5,122.5 Z"/></g>
<g><path style="opacity:1" fill="#f5a13b" d="M 100.5,109.5 C 100.5,119.167 100.5,128.833 100.5,138.5C 98.0363,141.216 95.8696,140.882 94,137.5C 93.2783,130.975 93.445,124.308 94.5,117.5C 94.1583,116.662 93.4916,116.328 92.5,116.5C 94.5691,113.427 97.2358,111.094 100.5,109.5 Z"/></g>
<g><path style="opacity:1" fill="#BDC2FF" d="M 571.5,122.5 C 590.526,134.405 596.359,151.072 589,172.5C 577.978,191.764 561.811,198.431 540.5,192.5C 539.144,190.73 537.311,189.397 535,188.5C 534.667,188.833 534.333,189.167 534,189.5C 531.742,186.714 532.242,186.048 535.5,187.5C 536.167,186.833 536.833,186.167 537.5,185.5C 537.94,186.698 538.273,187.865 538.5,189C 545.074,191.657 551.741,191.99 558.5,190C 557.464,188.383 556.297,188.216 555,189.5C 554.308,188.975 553.808,188.308 553.5,187.5C 554.85,186.05 556.516,185.383 558.5,185.5C 558.5,184.5 558.5,183.5 558.5,182.5C 561.888,182.126 563.722,180.126 564,176.5C 570.385,172.627 573.385,166.96 573,159.5C 571.35,163.918 569.184,168.084 566.5,172C 564.452,171.405 562.452,171.905 560.5,173.5C 559.893,173.376 559.56,173.043 559.5,172.5C 568.179,166.138 570.512,157.804 566.5,147.5C 567.583,147.461 568.583,147.127 569.5,146.5C 570.624,148.369 571.457,150.369 572,152.5C 572.273,148.51 572.439,144.676 572.5,141C 571.167,140.333 569.833,139.667 568.5,139C 571.181,134.843 570.514,134.01 566.5,136.5C 566.167,136.167 565.833,135.833 565.5,135.5C 567.04,134.468 567.54,133.135 567,131.5C 565.561,133.014 564.061,133.347 562.5,132.5C 564.475,131.725 565.309,130.391 565,128.5C 563.984,129.634 563.317,129.301 563,127.5C 561.927,128.28 560.76,128.113 559.5,127C 559.833,126.667 560.167,126.333 560.5,126C 559.692,125.692 559.025,125.192 558.5,124.5C 562.897,122.03 567.23,122.363 571.5,125.5C 572.087,124.767 572.087,123.767 571.5,122.5 Z"/></g>
<g><path style="opacity:1" fill="#BDC2FF" d="M 391.5,127.5 C 386.993,126.109 382.659,124.276 378.5,122C 374.495,121.178 370.662,120.678 367,120.5C 365.174,121.01 365.007,121.844 366.5,123C 360.946,124.093 356.946,127.093 354.5,132C 357.706,132.625 358.706,134.291 357.5,137C 359.744,137.05 361.411,137.883 362.5,139.5C 359.62,139.94 356.954,140.94 354.5,142.5C 353.25,142.423 352.417,141.756 352,140.5C 350.56,143.335 348.727,143.835 346.5,142C 347.478,140.025 348.811,138.358 350.5,137C 350.37,135.941 349.87,135.108 349,134.5C 345.617,137.574 342.45,140.908 339.5,144.5C 339.167,144 338.833,143.5 338.5,143C 341.323,140.339 343.657,137.339 345.5,134C 345.037,130.46 344.37,126.96 343.5,123.5C 342.914,123.709 342.414,124.043 342,124.5C 339.197,121.898 336.364,121.898 333.5,124.5C 332.284,123.998 331.117,123.665 330,123.5C 329.333,124.167 328.667,124.833 328,125.5C 327.228,129.89 327.394,134.223 328.5,138.5C 327.933,140.982 327.266,143.316 326.5,145.5C 326.5,137.167 326.5,128.833 326.5,120.5C 334.167,120.5 341.833,120.5 349.5,120.5C 349.337,122.857 349.503,125.19 350,127.5C 360.53,117.841 372.363,116.008 385.5,122C 387.996,123.331 389.996,125.164 391.5,127.5 Z"/></g>
<g><path style="opacity:1" fill="#f38227" d="M 62.5,126.5 C 62.5,129.5 62.5,132.5 62.5,135.5C 61.0899,138.964 61.4233,142.297 63.5,145.5C 63.1543,146.696 62.6543,146.696 62,145.5C 61.6667,144.5 61.3333,143.5 61,142.5C 60.8333,143.167 60.6667,143.833 60.5,144.5C 62.1219,147.325 62.9552,150.325 63,153.5C 61.1873,153.407 59.3539,153.073 57.5,152.5C 55.9121,151.99 54.7455,150.99 54,149.5C 53.3109,150.357 52.4776,151.023 51.5,151.5C 49.3274,148.828 46.8274,146.494 44,144.5C 41.6918,138.52 40.8584,132.52 41.5,126.5C 44.8778,125.314 47.0445,126.647 48,130.5C 48.3333,130.167 48.6667,129.833 49,129.5C 50.8574,132.07 53.1908,134.07 56,135.5C 59.0447,133.281 60.2114,130.281 59.5,126.5C 60.5,126.5 61.5,126.5 62.5,126.5 Z"/></g>
<g><path style="opacity:1" fill="#f66629" d="M 165.5,115.5 C 168.055,130.076 166.388,144.076 160.5,157.5C 158.952,157.821 158.285,158.821 158.5,160.5C 157.5,160.5 156.5,160.5 155.5,160.5C 155.357,163.097 154.523,165.431 153,167.5C 145.256,160.541 140.756,151.875 139.5,141.5C 139.517,139.435 139.85,137.435 140.5,135.5C 141.117,135.389 141.617,135.056 142,134.5C 141.908,144.063 142.908,144.396 145,135.5C 145.333,136.833 145.667,138.167 146,139.5C 147.188,135.15 149.688,131.817 153.5,129.5C 153.998,130.603 154.331,131.603 154.5,132.5C 156.422,131.289 158.255,129.956 160,128.5C 161.824,123.97 163.657,119.637 165.5,115.5 Z"/></g>
<g><path style="opacity:1" fill="#BDC2FF" d="M 214.5,129.5 C 213.778,129.918 213.278,130.584 213,131.5C 212.333,128.833 211.667,128.833 211,131.5C 210.667,125.833 210.333,120.167 210,114.5C 208.898,122.806 208.065,131.139 207.5,139.5C 208.722,141.909 208.055,143.742 205.5,145C 205.728,145.399 206.062,145.565 206.5,145.5C 204.549,148.786 202.215,151.786 199.5,154.5C 199.343,155.873 199.51,157.207 200,158.5C 201.362,157.075 202.862,156.242 204.5,156C 203.042,158.46 201.209,160.627 199,162.5C 198.223,165.429 198.39,168.263 199.5,171C 198.833,172.333 198.167,173.667 197.5,175C 198.635,175.749 199.635,175.583 200.5,174.5C 201.167,173.167 201.833,171.833 202.5,170.5C 201.572,169.232 201.405,167.899 202,166.5C 202.333,166.833 202.667,167.167 203,167.5C 203.318,171.195 203.818,174.862 204.5,178.5C 204.32,179.554 203.987,180.554 203.5,181.5C 203.833,181.833 204.167,182.167 204.5,182.5C 205.583,175.387 206.25,168.387 206.5,161.5C 208.638,161.297 210.305,160.297 211.5,158.5C 212.192,159.025 212.692,159.692 213,160.5C 214.356,159.62 215.856,159.286 217.5,159.5C 217.264,161.973 215.931,163.64 213.5,164.5C 213.167,163.833 212.833,163.167 212.5,162.5C 211.28,163.711 210.113,163.711 209,162.5C 207.557,170.799 207.724,178.966 209.5,187C 208.739,189.425 207.072,190.758 204.5,191C 207.675,190.947 210.342,191.78 212.5,193.5C 204.981,193.825 197.648,193.492 190.5,192.5C 191.496,192.586 192.329,192.252 193,191.5C 193.309,190.234 193.809,189.067 194.5,188C 193.361,177.776 193.361,167.443 194.5,157C 194.279,152.568 193.279,148.401 191.5,144.5C 191.846,143.304 192.346,143.304 193,144.5C 193.167,140.667 193.333,136.833 193.5,133C 193.404,128.523 192.738,124.19 191.5,120C 193.017,118.459 194.184,116.625 195,114.5C 195.763,118.975 196.263,123.309 196.5,127.5C 198.167,125.5 199.833,123.5 201.5,121.5C 202.192,123.335 201.858,125.168 200.5,127C 201.448,127.483 202.448,127.649 203.5,127.5C 204.016,122.586 203.849,117.586 203,112.5C 201.806,114.623 201.14,116.957 201,119.5C 200,120.167 199,120.833 198,121.5C 198.218,116.681 200.218,112.681 204,109.5C 204.711,107.633 204.211,106.133 202.5,105C 204.657,103.915 204.824,102.749 203,101.5C 202,103.833 200.333,105.5 198,106.5C 197.667,105.167 197.333,103.833 197,102.5C 195.938,105.029 195.105,107.696 194.5,110.5C 193.719,109.271 193.219,107.938 193,106.5C 192.667,109.167 192.333,111.833 192,114.5C 191.79,112.942 191.29,111.609 190.5,110.5C 190.5,106.5 190.5,102.5 190.5,98.5C 198.42,98.185 206.253,98.5183 214,99.5C 214.5,109.494 214.666,119.494 214.5,129.5 Z"/></g>
<g><path style="opacity:1" fill="#BDC2FF" d="M 396.5,133.5 C 399.974,137.453 402.14,142.12 403,147.5C 406.104,163.371 401.937,176.871 390.5,188C 389.906,188.464 389.239,188.631 388.5,188.5C 386.736,187.288 385.07,187.621 383.5,189.5C 380.501,184.97 381.501,181.47 386.5,179C 385.584,178.626 384.75,178.126 384,177.5C 382.26,179.954 380.093,181.454 377.5,182C 382.333,177.167 387.167,172.333 392,167.5C 392.333,167.833 392.667,168.167 393,168.5C 394.345,166.17 394.512,163.837 393.5,161.5C 387.848,167.652 382.015,173.652 376,179.5C 375.833,178.833 375.667,178.167 375.5,177.5C 377.121,175.376 378.954,173.376 381,171.5C 382.205,167.384 383.705,163.384 385.5,159.5C 384.167,157.167 384.167,154.833 385.5,152.5C 384.833,151.167 384.167,149.833 383.5,148.5C 384.751,147.369 385.751,146.036 386.5,144.5C 386.333,143.833 386.167,143.167 386,142.5C 385.576,144.615 384.409,145.448 382.5,145C 380.307,142.975 379.307,140.475 379.5,137.5C 378.325,137.719 377.325,137.386 376.5,136.5C 378.868,134.467 380.868,132.133 382.5,129.5C 383.363,128.537 384.03,128.537 384.5,129.5C 383.319,131.198 383.319,132.865 384.5,134.5C 385.478,134.023 386.311,133.357 387,132.5C 387.333,134.167 387.667,135.833 388,137.5C 390.043,133.854 392.877,132.521 396.5,133.5 Z"/></g>
<g><path style="opacity:1" fill="#BDC2FF" d="M 354.5,142.5 C 349.19,149.892 348.19,157.892 351.5,166.5C 350.761,166.369 350.094,166.536 349.5,167C 350.517,168.049 350.684,169.216 350,170.5C 347.953,167.036 346.287,163.37 345,159.5C 343.802,163.809 344.802,167.476 348,170.5C 348.49,171.793 348.657,173.127 348.5,174.5C 350.881,175.42 353.214,175.42 355.5,174.5C 357.062,176.413 356.562,178.413 354,180.5C 353.804,178.714 352.971,177.381 351.5,176.5C 350.15,177.95 348.484,178.617 346.5,178.5C 346.35,181.926 347.516,182.259 350,179.5C 350.692,180.025 351.192,180.692 351.5,181.5C 350.833,181.833 350.167,182.167 349.5,182.5C 350.309,184.071 350.643,185.738 350.5,187.5C 350.295,196.097 349.961,205.097 349.5,214.5C 348.677,211.023 348.177,207.356 348,203.5C 347.333,212.833 346.667,212.833 346,203.5C 344.667,202.167 343.333,202.167 342,203.5C 341.667,201.5 341.333,199.5 341,197.5C 337.738,200.092 335.238,203.259 333.5,207C 332.668,207.688 332.002,207.521 331.5,206.5C 333.32,203.517 335.32,200.684 337.5,198C 337.333,197.5 337.167,197 337,196.5C 335.316,198.24 333.482,199.406 331.5,200C 331.547,195.412 331.88,190.912 332.5,186.5C 332.167,186.167 331.833,185.833 331.5,185.5C 330.833,188.167 330.167,190.833 329.5,193.5C 328.708,191.535 328.041,189.535 327.5,187.5C 328.6,183.558 328.767,179.558 328,175.5C 327.768,176.737 327.268,177.737 326.5,178.5C 326.5,167.5 326.5,156.5 326.5,145.5C 327.266,143.316 327.933,140.982 328.5,138.5C 327.394,134.223 327.228,129.89 328,125.5C 328.667,124.833 329.333,124.167 330,123.5C 331.117,123.665 332.284,123.998 333.5,124.5C 336.364,121.898 339.197,121.898 342,124.5C 342.414,124.043 342.914,123.709 343.5,123.5C 344.37,126.96 345.037,130.46 345.5,134C 343.657,137.339 341.323,140.339 338.5,143C 338.833,143.5 339.167,144 339.5,144.5C 342.45,140.908 345.617,137.574 349,134.5C 349.87,135.108 350.37,135.941 350.5,137C 348.811,138.358 347.478,140.025 346.5,142C 348.727,143.835 350.56,143.335 352,140.5C 352.417,141.756 353.25,142.423 354.5,142.5 Z"/></g>
<g><path style="opacity:1" fill="#BDC2FF" d="M 256.5,123.5 C 252.912,128.593 248.745,133.26 244,137.5C 243.878,139.282 244.378,140.948 245.5,142.5C 244.859,143.482 244.193,144.482 243.5,145.5C 245.398,148.223 247.065,151.057 248.5,154C 242.654,159.087 241.654,158.587 245.5,152.5C 244.194,151.088 243.36,149.421 243,147.5C 240.421,149.921 239.587,149.421 240.5,146C 240.37,144.941 239.87,144.108 239,143.5C 238.077,144.759 237.243,146.092 236.5,147.5C 235.928,144.023 235.928,140.689 236.5,137.5C 236.167,137.167 235.833,136.833 235.5,136.5C 234.702,138.078 234.202,139.744 234,141.5C 233.333,142.833 232.667,142.833 232,141.5C 231.013,137.652 232.513,135.652 236.5,135.5C 236.719,134.325 236.386,133.325 235.5,132.5C 230.478,136.022 226.311,140.355 223,145.5C 221.172,147.081 219.172,148.415 217,149.5C 216.558,154.559 215.725,154.726 214.5,150C 216.133,146.57 215.133,145.736 211.5,147.5C 210.719,146.271 210.219,144.938 210,143.5C 209.184,144.823 208.017,145.489 206.5,145.5C 206.062,145.565 205.728,145.399 205.5,145C 208.055,143.742 208.722,141.909 207.5,139.5C 208.065,131.139 208.898,122.806 210,114.5C 210.333,120.167 210.667,125.833 211,131.5C 211.667,128.833 212.333,128.833 213,131.5C 213.278,130.584 213.778,129.918 214.5,129.5C 214.337,131.857 214.503,134.19 215,136.5C 220.064,131.605 224.897,126.605 229.5,121.5C 229.435,121.938 229.601,122.272 230,122.5C 231.067,121.809 232.234,121.309 233.5,121C 234.667,117.833 236.833,115.667 240,114.5C 240.333,115.833 240.667,117.167 241,118.5C 246.167,113.333 251.333,108.167 256.5,103C 257.332,102.312 257.998,102.479 258.5,103.5C 253.315,108.85 248.315,114.35 243.5,120C 246.167,118.667 248.833,117.333 251.5,116C 247.333,120.833 242.833,125.333 238,129.5C 237.506,131.134 237.34,132.801 237.5,134.5C 238.5,134.5 239.5,134.5 240.5,134.5C 240.5,133.167 240.5,131.833 240.5,130.5C 241.873,130.657 243.207,130.49 244.5,130C 243.978,129.439 243.645,128.772 243.5,128C 244.839,125.995 246.505,124.328 248.5,123C 250.135,122.46 251.468,122.96 252.5,124.5C 253.736,123.754 255.07,123.421 256.5,123.5 Z"/></g>
<g><path style="opacity:1" fill="#BDC2FF" d="M 495.5,140.5 C 495.717,143.666 495.051,146.833 493.5,150C 494.34,156.023 494.673,161.857 494.5,167.5C 494.167,168.167 493.833,168.833 493.5,169.5C 492.67,163.862 492.17,158.196 492,152.5C 491.667,152.167 491.333,151.833 491,151.5C 491.03,154.361 490.197,156.695 488.5,158.5C 487.389,157.34 486.389,156.007 485.5,154.5C 484.522,154.977 483.689,155.643 483,156.5C 476.581,155.687 470.081,155.187 463.5,155C 462.755,152.429 462.421,149.929 462.5,147.5C 463.624,146.086 464.624,144.586 465.5,143C 465.167,142.667 464.833,142.333 464.5,142C 468.338,140.77 472.338,139.937 476.5,139.5C 482.548,139.302 488.881,139.635 495.5,140.5 Z"/></g>
<g><path style="opacity:1" fill="#BDC2FF" d="M 224.5,156.5 C 221.169,160 218.002,163.666 215,167.5C 214.667,175.833 214.333,184.167 214,192.5C 213.617,193.056 213.117,193.389 212.5,193.5C 210.342,191.78 207.675,190.947 204.5,191C 207.072,190.758 208.739,189.425 209.5,187C 207.724,178.966 207.557,170.799 209,162.5C 210.113,163.711 211.28,163.711 212.5,162.5C 212.833,163.167 213.167,163.833 213.5,164.5C 215.931,163.64 217.264,161.973 217.5,159.5C 215.856,159.286 214.356,159.62 213,160.5C 212.692,159.692 212.192,159.025 211.5,158.5C 210.305,160.297 208.638,161.297 206.5,161.5C 206.25,168.387 205.583,175.387 204.5,182.5C 204.167,182.167 203.833,181.833 203.5,181.5C 203.987,180.554 204.32,179.554 204.5,178.5C 203.818,174.862 203.318,171.195 203,167.5C 202.667,167.167 202.333,166.833 202,166.5C 201.405,167.899 201.572,169.232 202.5,170.5C 201.833,171.833 201.167,173.167 200.5,174.5C 199.635,175.583 198.635,175.749 197.5,175C 198.167,173.667 198.833,172.333 199.5,171C 198.39,168.263 198.223,165.429 199,162.5C 201.209,160.627 203.042,158.46 204.5,156C 202.862,156.242 201.362,157.075 200,158.5C 199.51,157.207 199.343,155.873 199.5,154.5C 203.092,152.414 206.259,149.747 209,146.5C 209.72,148.112 209.554,149.612 208.5,151C 210.167,150.667 211.833,150.333 213.5,150C 212.604,152.179 211.271,154.012 209.5,155.5C 209.667,155.833 209.833,156.167 210,156.5C 212.021,153.714 213.521,154.047 214.5,157.5C 217.672,156.159 220.005,153.992 221.5,151C 221.167,150.667 220.833,150.333 220.5,150C 223.625,146.887 226.625,143.72 229.5,140.5C 230.681,142.135 230.681,143.802 229.5,145.5C 231.007,146.739 232.174,146.405 233,144.5C 234.259,146.878 234.092,149.378 232.5,152C 232.759,153.261 233.426,154.261 234.5,155C 234.167,155.333 233.833,155.667 233.5,156C 234.833,156.667 236.167,157.333 237.5,158C 236.929,159.205 236.262,160.372 235.5,161.5C 233.139,159.806 231.139,157.806 229.5,155.5C 228.038,156.471 226.705,156.138 225.5,154.5C 224.702,154.957 224.369,155.624 224.5,156.5 Z"/></g>
<g><path style="opacity:1" fill="#BDC2FF" d="M 537.5,151.5 C 535.858,167.52 542.858,174.853 558.5,173.5C 557.855,174.812 556.855,175.812 555.5,176.5C 551.871,174.967 548.205,174.634 544.5,175.5C 543.289,176.274 543.289,177.107 544.5,178C 547.471,178.794 550.471,179.461 553.5,180C 551.17,180.631 548.67,181.131 546,181.5C 545.055,181.095 544.388,180.428 544,179.5C 541.393,180.809 539.059,182.476 537,184.5C 535.714,183.65 535.881,182.483 537.5,181C 535.806,179.272 534.639,179.772 534,182.5C 533.667,182.167 533.333,181.833 533,181.5C 532.824,178.118 532.324,174.785 531.5,171.5C 531.669,174.602 531.336,177.935 530.5,181.5C 529.325,181.719 528.325,181.386 527.5,180.5C 525.823,178.46 524.156,176.46 522.5,174.5C 520.787,174.879 519.787,175.879 519.5,177.5C 517.428,175.65 516.095,173.317 515.5,170.5C 517.66,171.01 519.66,171.01 521.5,170.5C 520.311,166.721 519.311,162.888 518.5,159C 518.085,153.451 518.752,147.951 520.5,142.5C 521.552,142.351 522.552,142.517 523.5,143C 522.483,144.049 522.316,145.216 523,146.5C 525.293,145.113 527.46,143.946 529.5,143C 527.579,144.241 527.246,145.741 528.5,147.5C 530.833,145.167 533.167,142.833 535.5,140.5C 536.251,141.376 536.751,142.376 537,143.5C 538.368,142.007 538.535,140.507 537.5,139C 539.46,137.061 540.793,137.561 541.5,140.5C 538.847,143.641 536.847,147.141 535.5,151C 535.683,152.684 536.35,152.85 537.5,151.5 Z"/></g>
<g><path style="opacity:1" fill="#f38a31" d="M 94.5,117.5 C 93.445,124.308 93.2783,130.975 94,137.5C 95.8696,140.882 98.0363,141.216 100.5,138.5C 100.666,142.846 100.499,147.179 100,151.5C 99.6667,150.5 99.3333,149.5 99,148.5C 97.8869,149.711 96.7202,149.711 95.5,148.5C 94.6184,147.24 93.6184,146.074 92.5,145C 94.8483,143.312 95.0149,141.478 93,139.5C 92.6667,140.833 92.3333,142.167 92,143.5C 91.8784,141.563 91.045,140.23 89.5,139.5C 86.8633,138.37 84.1967,138.37 81.5,139.5C 80.7375,138.732 79.7375,138.232 78.5,138C 79.1667,137.667 79.8333,137.333 80.5,137C 79.376,136.751 78.376,136.251 77.5,135.5C 83.2161,129.453 88.8828,123.453 94.5,117.5 Z"/></g>
<g><path style="opacity:1" fill="#f57d26" d="M 41.5,126.5 C 40.8584,132.52 41.6918,138.52 44,144.5C 46.8274,146.494 49.3274,148.828 51.5,151.5C 52.4776,151.023 53.3109,150.357 54,149.5C 54.7455,150.99 55.9121,151.99 57.5,152.5C 59.3539,153.073 61.1873,153.407 63,153.5C 62.9552,150.325 62.1219,147.325 60.5,144.5C 60.6667,143.833 60.8333,143.167 61,142.5C 61.3333,143.5 61.6667,144.5 62,145.5C 62.6543,146.696 63.1543,146.696 63.5,145.5C 61.4233,142.297 61.0899,138.964 62.5,135.5C 64.2931,143.417 67.9598,150.417 73.5,156.5C 73.0825,157.222 72.4158,157.722 71.5,158C 73.326,159.835 74.326,161.669 74.5,163.5C 72.1075,162.792 69.9409,163.458 68,165.5C 65.0316,163.072 62.1983,163.405 59.5,166.5C 58.1575,165.098 57.3242,165.431 57,167.5C 54,165.5 51,163.5 48,161.5C 47.51,162.793 47.3433,164.127 47.5,165.5C 42.0256,157.756 38.6922,149.09 37.5,139.5C 38.1174,139.389 38.6174,139.056 39,138.5C 39.1697,132.472 39.6697,126.472 40.5,120.5C 41.4656,122.396 41.7989,124.396 41.5,126.5 Z"/></g>
<g><path style="opacity:1" fill="#272058" d="M 305.5,120.5 C 307.167,120.5 308.833,120.5 310.5,120.5C 310.667,144.502 310.5,168.502 310,192.5C 303.924,193.476 297.758,193.81 291.5,193.5C 292.489,191.218 294.156,189.551 296.5,188.5C 297.074,186.941 297.74,185.441 298.5,184C 298.359,179.384 298.359,174.717 298.5,170C 297.99,168.174 297.156,168.007 296,169.5C 296.428,175.164 295.928,180.83 294.5,186.5C 293.809,181.617 293.143,176.784 292.5,172C 293.026,159.14 293.026,146.14 292.5,133C 293.703,131.632 294.703,130.132 295.5,128.5C 295.062,127.494 294.396,127.494 293.5,128.5C 292.571,127.311 292.238,125.978 292.5,124.5C 294.465,123.871 296.465,123.204 298.5,122.5C 299.5,122.667 300.5,122.833 301.5,123C 300.304,123.654 300.304,124.154 301.5,124.5C 302.524,123.147 303.857,122.48 305.5,122.5C 304.591,135.961 304.591,149.128 305.5,162C 303.674,171.607 303.674,181.107 305.5,190.5C 300.5,191.003 300.833,191.336 306.5,191.5C 306.889,183.042 307.889,176.042 309.5,170.5C 308.853,165.315 307.853,160.148 306.5,155C 307.375,144.06 307.708,133.06 307.5,122C 306.584,121.722 305.918,121.222 305.5,120.5 Z"/></g>
<g><path style="opacity:1" fill="#BDC2FF" d="M 305.5,120.5 C 305.918,121.222 306.584,121.722 307.5,122C 307.708,133.06 307.375,144.06 306.5,155C 307.853,160.148 308.853,165.315 309.5,170.5C 307.889,176.042 306.889,183.042 306.5,191.5C 300.833,191.336 300.5,191.003 305.5,190.5C 303.674,181.107 303.674,171.607 305.5,162C 304.591,149.128 304.591,135.961 305.5,122.5C 303.857,122.48 302.524,123.147 301.5,124.5C 300.304,124.154 300.304,123.654 301.5,123C 300.5,122.833 299.5,122.667 298.5,122.5C 296.465,123.204 294.465,123.871 292.5,124.5C 292.238,125.978 292.571,127.311 293.5,128.5C 294.396,127.494 295.062,127.494 295.5,128.5C 294.703,130.132 293.703,131.632 292.5,133C 293.026,146.14 293.026,159.14 292.5,172C 293.143,176.784 293.809,181.617 294.5,186.5C 295.928,180.83 296.428,175.164 296,169.5C 297.156,168.007 297.99,168.174 298.5,170C 298.359,174.717 298.359,179.384 298.5,184C 297.74,185.441 297.074,186.941 296.5,188.5C 294.156,189.551 292.489,191.218 291.5,193.5C 290.178,193.67 289.011,193.337 288,192.5C 287.5,168.502 287.333,144.502 287.5,120.5C 293.5,120.5 299.5,120.5 305.5,120.5 Z"/></g>
<g><path style="opacity:1" fill="#BDC2FF" d="M 500.5,138.5 C 499.994,141.734 498.328,142.401 495.5,140.5C 488.881,139.635 482.548,139.302 476.5,139.5C 472.338,139.937 468.338,140.77 464.5,142C 464.833,142.333 465.167,142.667 465.5,143C 464.624,144.586 463.624,146.086 462.5,147.5C 462.421,149.929 462.755,152.429 463.5,155C 470.081,155.187 476.581,155.687 483,156.5C 483.689,155.643 484.522,154.977 485.5,154.5C 486.389,156.007 487.389,157.34 488.5,158.5C 488.145,161.137 487.811,163.804 487.5,166.5C 488.5,166.5 489.5,166.5 490.5,166.5C 488.748,168.246 487.415,170.246 486.5,172.5C 485.208,174.702 483.374,176.369 481,177.5C 479.927,176.72 478.76,176.887 477.5,178C 476.395,182.226 475.062,182.393 473.5,178.5C 472.032,180.333 470.365,180.666 468.5,179.5C 471.627,177.901 474.96,176.734 478.5,176C 475.714,174.547 472.88,174.714 470,176.5C 469.487,175.473 468.987,174.473 468.5,173.5C 472.956,172.516 477.123,170.849 481,168.5C 481.498,165.183 481.665,161.85 481.5,158.5C 474.75,158.21 468.084,158.044 461.5,158C 460.358,151.916 460.191,145.749 461,139.5C 474.087,138.511 487.254,138.177 500.5,138.5 Z"/></g>
<g><path style="opacity:1" fill="#BDC2FF" d="M 124.5,138.5 C 121.167,138.5 117.833,138.5 114.5,138.5C 114.334,143.844 114.501,149.177 115,154.5C 123.036,162.368 130.869,170.368 138.5,178.5C 135.888,178.544 133.555,179.211 131.5,180.5C 124.342,177.51 118.508,172.843 114,166.5C 112.269,162.759 111.102,159.092 110.5,155.5C 113.427,153.184 113.093,151.684 109.5,151C 111.35,149.155 111.683,147.155 110.5,145C 112.418,143.23 112.918,141.063 112,138.5C 111.779,141.943 110.779,142.276 109,139.5C 108.206,142.471 107.539,145.471 107,148.5C 106.31,149.738 105.81,149.738 105.5,148.5C 105.335,144.818 105.501,141.152 106,137.5C 106.26,135.382 107.26,133.716 109,132.5C 109.414,132.957 109.914,133.291 110.5,133.5C 113.393,129.747 116.06,129.747 118.5,133.5C 116.833,134.667 115.167,135.833 113.5,137C 117.356,137.177 121.023,137.677 124.5,138.5 Z"/></g>
<g><path style="opacity:1" fill="#BDC2FF" d="M 500.5,138.5 C 501.822,138.33 502.989,138.663 504,139.5C 504.667,152.833 504.667,166.167 504,179.5C 499.747,183.707 494.913,187.04 489.5,189.5C 489.53,188.503 489.03,187.836 488,187.5C 485.034,189.262 482.868,188.595 481.5,185.5C 483.007,184.261 484.174,184.595 485,186.5C 485.367,182.719 486.7,182.052 489,184.5C 489.692,183.975 490.192,183.308 490.5,182.5C 489.416,179.021 490.583,176.355 494,174.5C 494.31,169.341 493.81,169.341 492.5,174.5C 489.626,176.016 486.959,178.016 484.5,180.5C 484.167,180.333 483.833,180.167 483.5,180C 486.9,176.99 489.067,173.49 490,169.5C 489.241,171.063 488.074,172.063 486.5,172.5C 487.415,170.246 488.748,168.246 490.5,166.5C 489.5,166.5 488.5,166.5 487.5,166.5C 487.811,163.804 488.145,161.137 488.5,158.5C 490.197,156.695 491.03,154.361 491,151.5C 491.333,151.833 491.667,152.167 492,152.5C 492.17,158.196 492.67,163.862 493.5,169.5C 493.833,168.833 494.167,168.167 494.5,167.5C 494.673,161.857 494.34,156.023 493.5,150C 495.051,146.833 495.717,143.666 495.5,140.5C 498.328,142.401 499.994,141.734 500.5,138.5 Z"/></g>
<g><path style="opacity:1" fill="#f44d24" d="M 139.5,141.5 C 140.756,151.875 145.256,160.541 153,167.5C 154.523,165.431 155.357,163.097 155.5,160.5C 156.5,160.5 157.5,160.5 158.5,160.5C 158.285,158.821 158.952,157.821 160.5,157.5C 158.159,163.346 155.159,168.846 151.5,174C 144.191,168.871 137.524,162.704 131.5,155.5C 134.714,151.064 137.38,146.397 139.5,141.5 Z"/></g>
<g><path style="opacity:1" fill="#BDC2FF" d="M 245.5,142.5 C 250.412,149.32 255.078,156.32 259.5,163.5C 258.312,164.684 257.145,164.684 256,163.5C 254,164.5 254,165.5 256,166.5C 256.667,168.167 256.667,169.833 256,171.5C 253.622,173.709 251.455,176.042 249.5,178.5C 248.417,177.635 248.251,176.635 249,175.5C 251.222,173.615 253.056,171.449 254.5,169C 254.167,168.5 253.833,168 253.5,167.5C 246.854,175.465 245.854,174.631 250.5,165C 250.167,163.833 249.833,162.667 249.5,161.5C 248.126,162.711 246.626,163.711 245,164.5C 244.055,164.095 243.388,163.428 243,162.5C 243.046,164.313 242.88,165.979 242.5,167.5C 241.167,165.833 239.833,164.167 238.5,162.5C 237.608,164.16 237.441,166.16 238,168.5C 237.047,166.627 235.88,166.294 234.5,167.5C 231.865,164.921 229.699,161.921 228,158.5C 227.184,157.177 226.017,156.511 224.5,156.5C 224.369,155.624 224.702,154.957 225.5,154.5C 226.705,156.138 228.038,156.471 229.5,155.5C 231.139,157.806 233.139,159.806 235.5,161.5C 236.262,160.372 236.929,159.205 237.5,158C 236.167,157.333 234.833,156.667 233.5,156C 233.833,155.667 234.167,155.333 234.5,155C 233.426,154.261 232.759,153.261 232.5,152C 234.092,149.378 234.259,146.878 233,144.5C 232.174,146.405 231.007,146.739 229.5,145.5C 230.681,143.802 230.681,142.135 229.5,140.5C 226.625,143.72 223.625,146.887 220.5,150C 220.833,150.333 221.167,150.667 221.5,151C 220.005,153.992 217.672,156.159 214.5,157.5C 213.521,154.047 212.021,153.714 210,156.5C 209.833,156.167 209.667,155.833 209.5,155.5C 211.271,154.012 212.604,152.179 213.5,150C 211.833,150.333 210.167,150.667 208.5,151C 209.554,149.612 209.72,148.112 209,146.5C 206.259,149.747 203.092,152.414 199.5,154.5C 202.215,151.786 204.549,148.786 206.5,145.5C 208.017,145.489 209.184,144.823 210,143.5C 210.219,144.938 210.719,146.271 211.5,147.5C 215.133,145.736 216.133,146.57 214.5,150C 215.725,154.726 216.558,154.559 217,149.5C 219.172,148.415 221.172,147.081 223,145.5C 226.311,140.355 230.478,136.022 235.5,132.5C 236.386,133.325 236.719,134.325 236.5,135.5C 232.513,135.652 231.013,137.652 232,141.5C 232.667,142.833 233.333,142.833 234,141.5C 234.202,139.744 234.702,138.078 235.5,136.5C 235.833,136.833 236.167,137.167 236.5,137.5C 235.928,140.689 235.928,144.023 236.5,147.5C 237.243,146.092 238.077,144.759 239,143.5C 239.87,144.108 240.37,144.941 240.5,146C 239.587,149.421 240.421,149.921 243,147.5C 243.36,149.421 244.194,151.088 245.5,152.5C 241.654,158.587 242.654,159.087 248.5,154C 247.065,151.057 245.398,148.223 243.5,145.5C 244.193,144.482 244.859,143.482 245.5,142.5 Z"/></g>
<g><path style="opacity:1" fill="#BDC2FF" d="M 138.5,178.5 C 140.624,180.059 142.291,182.059 143.5,184.5C 140.72,188.421 137.72,192.087 134.5,195.5C 133.109,193.04 131.942,190.374 131,187.5C 129.23,188.276 127.397,188.11 125.5,187C 121.633,184.302 117.633,181.802 113.5,179.5C 113.167,179.833 112.833,180.167 112.5,180.5C 116.128,183.322 119.795,186.155 123.5,189C 126.62,189.585 129.287,190.919 131.5,193C 129.992,196.379 128.659,196.213 127.5,192.5C 123.873,191.019 120.54,189.019 117.5,186.5C 116.914,186.709 116.414,187.043 116,187.5C 114.89,185.757 113.39,184.424 111.5,183.5C 110.167,181.833 110.167,180.167 111.5,178.5C 109.73,177.18 109.397,175.68 110.5,174C 110,173.5 109.5,173 109,172.5C 107.392,174.1 105.559,175.433 103.5,176.5C 102.505,171.208 102.172,165.875 102.5,160.5C 102.334,156.486 102.501,152.486 103,148.5C 103.333,149.167 103.667,149.833 104,150.5C 104.278,149.584 104.778,148.918 105.5,148.5C 105.81,149.738 106.31,149.738 107,148.5C 107.539,145.471 108.206,142.471 109,139.5C 110.779,142.276 111.779,141.943 112,138.5C 112.918,141.063 112.418,143.23 110.5,145C 111.683,147.155 111.35,149.155 109.5,151C 113.093,151.684 113.427,153.184 110.5,155.5C 111.102,159.092 112.269,162.759 114,166.5C 118.508,172.843 124.342,177.51 131.5,180.5C 133.555,179.211 135.888,178.544 138.5,178.5 Z"/></g>
<g><path style="opacity:1" fill="#BDC2FF" d="M 436.5,125.5 C 436.548,128.292 435.215,130.125 432.5,131C 433.249,132.734 433.749,134.567 434,136.5C 434.419,135.328 435.085,134.328 436,133.5C 436.155,135.856 436.155,138.189 436,140.5C 436.383,139.944 436.883,139.611 437.5,139.5C 436.113,148.5 437.946,156.833 443,164.5C 447.906,170.036 454.073,173.036 461.5,173.5C 458.656,174.616 455.656,175.616 452.5,176.5C 452.291,177.086 451.957,177.586 451.5,178C 452.672,178.353 453.838,178.187 455,177.5C 456.257,177.85 456.591,178.517 456,179.5C 452.627,182.379 449.127,185.045 445.5,187.5C 444.651,185.49 445.318,183.823 447.5,182.5C 443.302,181.718 441.635,183.718 442.5,188.5C 444.582,188.472 446.416,189.139 448,190.5C 448.483,189.552 448.649,188.552 448.5,187.5C 449.552,187.351 450.552,187.517 451.5,188C 450.289,188.893 450.289,189.726 451.5,190.5C 452.532,188.96 453.865,188.46 455.5,189C 454.259,190.487 454.759,191.32 457,191.5C 461.391,191.565 465.891,191.232 470.5,190.5C 469.121,189.137 469.287,188.137 471,187.5C 471.256,189.692 472.423,191.692 474.5,193.5C 461.291,196.432 448.625,194.765 436.5,188.5C 437.552,188.649 438.552,188.483 439.5,188C 439.167,187.667 438.833,187.333 438.5,187C 440.55,185.364 441.55,183.198 441.5,180.5C 440.178,180.33 439.011,180.663 438,181.5C 437.056,180.737 436.556,179.737 436.5,178.5C 437.572,173.596 436.572,173.263 433.5,177.5C 432.813,175.726 431.98,174.059 431,172.5C 430.781,173.938 430.281,175.271 429.5,176.5C 428.938,173.771 427.272,172.271 424.5,172C 424.493,170.417 424.826,168.751 425.5,167C 424.216,166.316 423.049,166.483 422,167.5C 420.803,163.524 420.136,159.524 420,155.5C 420.333,155.167 420.667,154.833 421,154.5C 421.219,155.938 421.719,157.271 422.5,158.5C 425,156.167 427.5,153.833 430,151.5C 430.749,150.365 430.583,149.365 429.5,148.5C 427.47,150.607 425.303,152.607 423,154.5C 422.833,154 422.667,153.5 422.5,153C 424.805,149.574 427.472,146.407 430.5,143.5C 429.998,142.479 429.332,142.312 428.5,143C 425.36,146.14 422.194,149.306 419,152.5C 420.85,147.144 424.35,143.144 429.5,140.5C 428.417,133.731 430.75,128.731 436.5,125.5 Z"/></g>
<g><path style="opacity:1" fill="#251e5a" d="M 382.5,129.5 C 380.868,132.133 378.868,134.467 376.5,136.5C 377.325,137.386 378.325,137.719 379.5,137.5C 379.307,140.475 380.307,142.975 382.5,145C 384.409,145.448 385.576,144.615 386,142.5C 386.167,143.167 386.333,143.833 386.5,144.5C 385.751,146.036 384.751,147.369 383.5,148.5C 384.167,149.833 384.833,151.167 385.5,152.5C 384.167,154.833 384.167,157.167 385.5,159.5C 383.705,163.384 382.205,167.384 381,171.5C 378.954,173.376 377.121,175.376 375.5,177.5C 375.667,178.167 375.833,178.833 376,179.5C 382.015,173.652 387.848,167.652 393.5,161.5C 394.512,163.837 394.345,166.17 393,168.5C 392.667,168.167 392.333,167.833 392,167.5C 387.167,172.333 382.333,177.167 377.5,182C 380.093,181.454 382.26,179.954 384,177.5C 384.75,178.126 385.584,178.626 386.5,179C 381.501,181.47 380.501,184.97 383.5,189.5C 385.07,187.621 386.736,187.288 388.5,188.5C 383.186,192.77 377.02,194.77 370,194.5C 366.41,194.528 362.91,194.028 359.5,193C 356.333,191.311 353.333,189.478 350.5,187.5C 350.643,185.738 350.309,184.071 349.5,182.5C 350.167,182.167 350.833,181.833 351.5,181.5C 351.192,180.692 350.692,180.025 350,179.5C 347.516,182.259 346.35,181.926 346.5,178.5C 348.484,178.617 350.15,177.95 351.5,176.5C 352.971,177.381 353.804,178.714 354,180.5C 356.562,178.413 357.062,176.413 355.5,174.5C 353.214,175.42 350.881,175.42 348.5,174.5C 348.657,173.127 348.49,171.793 348,170.5C 344.802,167.476 343.802,163.809 345,159.5C 346.287,163.37 347.953,167.036 350,170.5C 350.684,169.216 350.517,168.049 349.5,167C 350.094,166.536 350.761,166.369 351.5,166.5C 358.918,176.283 367.084,176.95 376,168.5C 381.656,157.84 380.156,148.507 371.5,140.5C 370.697,139.577 370.53,138.577 371,137.5C 373.268,135.238 375.768,133.238 378.5,131.5C 379.386,130.675 379.719,129.675 379.5,128.5C 380.791,128.263 381.791,128.596 382.5,129.5 Z"/></g>
<g><path style="opacity:1" fill="#271e5b" d="M 259.5,163.5 C 262.605,166.275 264.938,169.608 266.5,173.5C 266.062,173.435 265.728,173.601 265.5,174C 269.705,177.628 269.372,180.461 264.5,182.5C 264.849,179.537 263.849,177.204 261.5,175.5C 253.18,183.533 252.513,182.866 259.5,173.5C 259.333,172.833 259.167,172.167 259,171.5C 255.713,174.076 252.88,177.076 250.5,180.5C 251.782,182.179 252.782,184.013 253.5,186C 253,186.5 252.5,187 252,187.5C 250.748,185.999 249.748,184.332 249,182.5C 248.764,184.119 247.931,185.119 246.5,185.5C 242.5,179.5 238.5,173.5 234.5,167.5C 235.88,166.294 237.047,166.627 238,168.5C 237.441,166.16 237.608,164.16 238.5,162.5C 239.833,164.167 241.167,165.833 242.5,167.5C 242.88,165.979 243.046,164.313 243,162.5C 243.388,163.428 244.055,164.095 245,164.5C 246.626,163.711 248.126,162.711 249.5,161.5C 249.833,162.667 250.167,163.833 250.5,165C 245.854,174.631 246.854,175.465 253.5,167.5C 253.833,168 254.167,168.5 254.5,169C 253.056,171.449 251.222,173.615 249,175.5C 248.251,176.635 248.417,177.635 249.5,178.5C 251.455,176.042 253.622,173.709 256,171.5C 256.667,169.833 256.667,168.167 256,166.5C 254,165.5 254,164.5 256,163.5C 257.145,164.684 258.312,164.684 259.5,163.5 Z"/></g>
<g><path style="opacity:1" fill="#BDC2FF" d="M 540.5,192.5 C 531.177,190.679 524.177,185.679 519.5,177.5C 519.787,175.879 520.787,174.879 522.5,174.5C 524.156,176.46 525.823,178.46 527.5,180.5C 528.325,181.386 529.325,181.719 530.5,181.5C 531.336,177.935 531.669,174.602 531.5,171.5C 532.324,174.785 532.824,178.118 533,181.5C 533.333,181.833 533.667,182.167 534,182.5C 534.639,179.772 535.806,179.272 537.5,181C 535.881,182.483 535.714,183.65 537,184.5C 539.059,182.476 541.393,180.809 544,179.5C 544.388,180.428 545.055,181.095 546,181.5C 548.67,181.131 551.17,180.631 553.5,180C 550.471,179.461 547.471,178.794 544.5,178C 543.289,177.107 543.289,176.274 544.5,175.5C 548.205,174.634 551.871,174.967 555.5,176.5C 556.855,175.812 557.855,174.812 558.5,173.5C 558.5,172.833 558.833,172.5 559.5,172.5C 559.56,173.043 559.893,173.376 560.5,173.5C 562.452,171.905 564.452,171.405 566.5,172C 569.184,168.084 571.35,163.918 573,159.5C 573.385,166.96 570.385,172.627 564,176.5C 563.722,180.126 561.888,182.126 558.5,182.5C 558.5,183.5 558.5,184.5 558.5,185.5C 556.516,185.383 554.85,186.05 553.5,187.5C 553.808,188.308 554.308,188.975 555,189.5C 556.297,188.216 557.464,188.383 558.5,190C 551.741,191.99 545.074,191.657 538.5,189C 538.273,187.865 537.94,186.698 537.5,185.5C 536.833,186.167 536.167,186.833 535.5,187.5C 532.242,186.048 531.742,186.714 534,189.5C 534.333,189.167 534.667,188.833 535,188.5C 537.311,189.397 539.144,190.73 540.5,192.5 Z"/></g>
<g><path style="opacity:1" fill="#f1732b" d="M 101.5,108.5 C 101.5,125.833 101.5,143.167 101.5,160.5C 101.5,170.833 101.5,181.167 101.5,191.5C 101.5,203.5 101.5,215.5 101.5,227.5C 100.833,227.5 100.5,227.167 100.5,226.5C 100.5,216.5 100.5,206.5 100.5,196.5C 100.5,193.167 100.5,189.833 100.5,186.5C 98.4086,186.318 96.4086,186.652 94.5,187.5C 93.6733,185.838 92.5067,184.505 91,183.5C 90.4604,181.865 90.9604,180.532 92.5,179.5C 91.633,176.016 90.4664,172.683 89,169.5C 88.586,169.957 88.086,170.291 87.5,170.5C 86.0589,169.696 84.5589,169.029 83,168.5C 81,169.833 79,169.833 77,168.5C 73.6492,170.593 70.1492,172.26 66.5,173.5C 66.719,172.325 66.3857,171.325 65.5,170.5C 64.7568,171.908 63.9234,173.241 63,174.5C 62.3741,172.009 61.5407,172.009 60.5,174.5C 58.3584,173.399 56.1917,172.399 54,171.5C 53.3333,172.5 53.3333,173.5 54,174.5C 55.8446,175.05 57.3446,176.05 58.5,177.5C 57.675,178.386 56.675,178.719 55.5,178.5C 52.0843,174.677 49.4176,170.343 47.5,165.5C 47.3433,164.127 47.51,162.793 48,161.5C 51,163.5 54,165.5 57,167.5C 57.3242,165.431 58.1575,165.098 59.5,166.5C 62.1983,163.405 65.0316,163.072 68,165.5C 69.9409,163.458 72.1075,162.792 74.5,163.5C 74.326,161.669 73.326,159.835 71.5,158C 72.4158,157.722 73.0825,157.222 73.5,156.5C 78.0191,160.76 83.3525,163.426 89.5,164.5C 89.5,156.167 89.5,147.833 89.5,139.5C 91.045,140.23 91.8784,141.563 92,143.5C 92.3333,142.167 92.6667,140.833 93,139.5C 95.0149,141.478 94.8483,143.312 92.5,145C 93.6184,146.074 94.6184,147.24 95.5,148.5C 96.7202,149.711 97.8869,149.711 99,148.5C 99.3333,149.5 99.6667,150.5 100,151.5C 100.499,147.179 100.666,142.846 100.5,138.5C 100.5,128.833 100.5,119.167 100.5,109.5C 100.5,108.833 100.833,108.5 101.5,108.5 Z"/></g>
<g><path style="opacity:1" fill="#BDC2FF" d="M 489.5,189.5 C 484.722,191.612 479.722,192.945 474.5,193.5C 472.423,191.692 471.256,189.692 471,187.5C 469.287,188.137 469.121,189.137 470.5,190.5C 465.891,191.232 461.391,191.565 457,191.5C 454.759,191.32 454.259,190.487 455.5,189C 453.865,188.46 452.532,188.96 451.5,190.5C 450.289,189.726 450.289,188.893 451.5,188C 450.552,187.517 449.552,187.351 448.5,187.5C 448.649,188.552 448.483,189.552 448,190.5C 446.416,189.139 444.582,188.472 442.5,188.5C 441.635,183.718 443.302,181.718 447.5,182.5C 445.318,183.823 444.651,185.49 445.5,187.5C 449.127,185.045 452.627,182.379 456,179.5C 456.591,178.517 456.257,177.85 455,177.5C 453.838,178.187 452.672,178.353 451.5,178C 451.957,177.586 452.291,177.086 452.5,176.5C 455.656,175.616 458.656,174.616 461.5,173.5C 463.833,173.5 466.167,173.5 468.5,173.5C 468.987,174.473 469.487,175.473 470,176.5C 472.88,174.714 475.714,174.547 478.5,176C 474.96,176.734 471.627,177.901 468.5,179.5C 470.365,180.666 472.032,180.333 473.5,178.5C 475.062,182.393 476.395,182.226 477.5,178C 478.76,176.887 479.927,176.72 481,177.5C 483.374,176.369 485.208,174.702 486.5,172.5C 488.074,172.063 489.241,171.063 490,169.5C 489.067,173.49 486.9,176.99 483.5,180C 483.833,180.167 484.167,180.333 484.5,180.5C 486.959,178.016 489.626,176.016 492.5,174.5C 493.81,169.341 494.31,169.341 494,174.5C 490.583,176.355 489.416,179.021 490.5,182.5C 490.192,183.308 489.692,183.975 489,184.5C 486.7,182.052 485.367,182.719 485,186.5C 484.174,184.595 483.007,184.261 481.5,185.5C 482.868,188.595 485.034,189.262 488,187.5C 489.03,187.836 489.53,188.503 489.5,189.5 Z"/></g>
<g><path style="opacity:1" fill="#f96c2a" d="M 100.5,196.5 C 98.4247,196.698 96.4247,196.865 94.5,197C 92.834,194.252 91.334,191.419 90,188.5C 84.466,189.112 78.966,190.112 73.5,191.5C 72.1374,190.802 70.9707,190.802 70,191.5C 68.3976,188.626 66.231,187.626 63.5,188.5C 60.3637,185.571 57.697,182.238 55.5,178.5C 56.675,178.719 57.675,178.386 58.5,177.5C 57.3446,176.05 55.8446,175.05 54,174.5C 53.3333,173.5 53.3333,172.5 54,171.5C 56.1917,172.399 58.3584,173.399 60.5,174.5C 61.5407,172.009 62.3741,172.009 63,174.5C 63.9234,173.241 64.7568,171.908 65.5,170.5C 66.3857,171.325 66.719,172.325 66.5,173.5C 70.1492,172.26 73.6492,170.593 77,168.5C 79,169.833 81,169.833 83,168.5C 84.5589,169.029 86.0589,169.696 87.5,170.5C 88.086,170.291 88.586,169.957 89,169.5C 90.4664,172.683 91.633,176.016 92.5,179.5C 90.9604,180.532 90.4604,181.865 91,183.5C 92.5067,184.505 93.6733,185.838 94.5,187.5C 96.4086,186.652 98.4086,186.318 100.5,186.5C 100.5,189.833 100.5,193.167 100.5,196.5 Z"/></g>
<g><path style="opacity:1" fill="#221d54" d="M 101.5,160.5 C 101.833,160.5 102.167,160.5 102.5,160.5C 102.172,165.875 102.505,171.208 103.5,176.5C 105.559,175.433 107.392,174.1 109,172.5C 109.5,173 110,173.5 110.5,174C 109.397,175.68 109.73,177.18 111.5,178.5C 110.167,180.167 110.167,181.833 111.5,183.5C 113.39,184.424 114.89,185.757 116,187.5C 116.414,187.043 116.914,186.709 117.5,186.5C 120.54,189.019 123.873,191.019 127.5,192.5C 128.659,196.213 129.992,196.379 131.5,193C 129.287,190.919 126.62,189.585 123.5,189C 119.795,186.155 116.128,183.322 112.5,180.5C 112.833,180.167 113.167,179.833 113.5,179.5C 117.633,181.802 121.633,184.302 125.5,187C 127.397,188.11 129.23,188.276 131,187.5C 131.942,190.374 133.109,193.04 134.5,195.5C 133.167,197.5 131.5,199.167 129.5,200.5C 127.338,199.874 125.005,199.874 122.5,200.5C 120.616,200.284 118.949,199.617 117.5,198.5C 113.833,201.5 110.5,204.833 107.5,208.5C 106.675,209.386 105.675,209.719 104.5,209.5C 104.281,208.325 104.614,207.325 105.5,206.5C 109.058,203.557 112.392,200.39 115.5,197C 115.167,196.5 114.833,196 114.5,195.5C 113.476,196.853 112.143,197.52 110.5,197.5C 110.349,194.282 109.516,193.949 108,196.5C 106.491,195.91 104.991,195.244 103.5,194.5C 104.325,193.614 105.325,193.281 106.5,193.5C 106.649,192.448 106.483,191.448 106,190.5C 104.644,191.38 103.144,191.714 101.5,191.5C 101.5,181.167 101.5,170.833 101.5,160.5 Z"/></g>
<g><path style="opacity:1" fill="#BDC2FF" d="M 266.5,173.5 C 271.134,178.743 275.301,184.41 279,190.5C 279.483,191.448 279.649,192.448 279.5,193.5C 270.494,193.666 261.494,193.5 252.5,193C 249.906,190.914 247.906,188.414 246.5,185.5C 247.931,185.119 248.764,184.119 249,182.5C 249.748,184.332 250.748,185.999 252,187.5C 252.5,187 253,186.5 253.5,186C 252.782,184.013 251.782,182.179 250.5,180.5C 252.88,177.076 255.713,174.076 259,171.5C 259.167,172.167 259.333,172.833 259.5,173.5C 252.513,182.866 253.18,183.533 261.5,175.5C 263.849,177.204 264.849,179.537 264.5,182.5C 269.372,180.461 269.705,177.628 265.5,174C 265.728,173.601 266.062,173.435 266.5,173.5 Z"/></g>
<g><path style="opacity:1" fill="#251f59" d="M 349.5,214.5 C 349.67,215.822 349.337,216.989 348.5,218C 341.253,218.812 334.086,218.646 327,217.5C 326.5,204.504 326.333,191.504 326.5,178.5C 327.268,177.737 327.768,176.737 328,175.5C 328.767,179.558 328.6,183.558 327.5,187.5C 328.041,189.535 328.708,191.535 329.5,193.5C 330.167,190.833 330.833,188.167 331.5,185.5C 331.833,185.833 332.167,186.167 332.5,186.5C 331.88,190.912 331.547,195.412 331.5,200C 333.482,199.406 335.316,198.24 337,196.5C 337.167,197 337.333,197.5 337.5,198C 335.32,200.684 333.32,203.517 331.5,206.5C 332.002,207.521 332.668,207.688 333.5,207C 335.238,203.259 337.738,200.092 341,197.5C 341.333,199.5 341.667,201.5 342,203.5C 343.333,202.167 344.667,202.167 346,203.5C 346.667,212.833 347.333,212.833 348,203.5C 348.177,207.356 348.677,211.023 349.5,214.5 Z"/></g>
<g><path style="opacity:1" fill="#f75d2a" d="M 100.5,196.5 C 100.5,206.5 100.5,216.5 100.5,226.5C 89.2329,216.736 78.3995,206.402 68,195.5C 66.2502,193.266 64.7502,190.932 63.5,188.5C 66.231,187.626 68.3976,188.626 70,191.5C 70.9707,190.802 72.1374,190.802 73.5,191.5C 78.966,190.112 84.466,189.112 90,188.5C 91.334,191.419 92.834,194.252 94.5,197C 96.4247,196.865 98.4247,196.698 100.5,196.5 Z"/></g>
<g><path style="opacity:1" fill="#1b1544" d="M 129.5,200.5 C 126.877,204.791 123.544,208.457 119.5,211.5C 110.609,210.805 110.276,208.971 118.5,206C 117.176,203.291 115.51,202.958 113.5,205C 111.926,206.826 111.093,208.993 111,211.5C 109.684,208.972 108.517,208.972 107.5,211.5C 108.062,215.413 109.562,216.079 112,213.5C 110.593,216.945 108.259,219.945 105,222.5C 104.692,221.692 104.192,221.025 103.5,220.5C 102.534,222.396 102.201,224.396 102.5,226.5C 102.5,227.167 102.167,227.5 101.5,227.5C 101.5,215.5 101.5,203.5 101.5,191.5C 103.144,191.714 104.644,191.38 106,190.5C 106.483,191.448 106.649,192.448 106.5,193.5C 105.325,193.281 104.325,193.614 103.5,194.5C 104.991,195.244 106.491,195.91 108,196.5C 109.516,193.949 110.349,194.282 110.5,197.5C 112.143,197.52 113.476,196.853 114.5,195.5C 114.833,196 115.167,196.5 115.5,197C 112.392,200.39 109.058,203.557 105.5,206.5C 104.614,207.325 104.281,208.325 104.5,209.5C 105.675,209.719 106.675,209.386 107.5,208.5C 110.5,204.833 113.833,201.5 117.5,198.5C 118.949,199.617 120.616,200.284 122.5,200.5C 125.005,199.874 127.338,199.874 129.5,200.5 Z"/></g>
<g><path style="opacity:1" fill="#160f4b" d="M 119.5,211.5 C 114.136,216.865 108.469,221.865 102.5,226.5C 102.201,224.396 102.534,222.396 103.5,220.5C 104.192,221.025 104.692,221.692 105,222.5C 108.259,219.945 110.593,216.945 112,213.5C 109.562,216.079 108.062,215.413 107.5,211.5C 108.517,208.972 109.684,208.972 111,211.5C 111.093,208.993 111.926,206.826 113.5,205C 115.51,202.958 117.176,203.291 118.5,206C 110.276,208.971 110.609,210.805 119.5,211.5 Z"/></g>
</svg>
